:SAMPLES-PER-SECOND 30
:FULLY-SPECIFIED
:DEGREES
394
root  -54.4287 30.1219 22.0669 145.625 75.8319 122.229
RightUpLeg  -0.00394495 18.5571 6.98503
RightLeg  22.4381 0.534755 0.178874
RightFoot  -19.4554 -0.192478 -0.745221
RightToes  16.8845 0.0183905 0.163604
Spine  11.9727 2.91855 -0.518725
Spine1  22.0297 10.1202 -7.46696
HEad  13.856 -26.6931 23.0718
LeftShoulder1  0 -2.42657e-020 -4.95415e-022
LeftArm  -21.1159 13.4024 -58.8352
LeftForeArm  -131.479 -26.8339 -4.7014
LeftHand  8.06997 -25.5484 -34.9436
RightShoulder  0 2.42657e-020 1.07489e-018
RightArm  -30.8399 15.6025 81.296
RightForeArm  55.3497 39.7125 8.3892
RightHand  -5.46451 16.3031 -36.4964
LeftUpLeg  -59.9648 -1.8903 -6.15803
LeftLeg  27.5592 -2.923 -1.2965
LeftFoot  -1.90046 0.00490847 0.295927
LeftToes  -25.51 1.18758e-006 1.19596e-007
395
root  -52.4621 29.4722 21.2677 140.385 77.0286 116.578
RightUpLeg  3.23907 17.8223 6.89416
RightLeg  22.6328 0.507093 0.171287
RightFoot  -18.6704 -0.195819 -0.813644
RightToes  16.0289 0.0182916 0.155237
Spine  13.0228 3.86609 0.093428
Spine1  23.9294 12.9898 -7.8288
HEad  10.0059 -24.2864 21.8989
LeftShoulder1  0 -2.42657e-020 -4.95415e-022
LeftArm  -22.972 6.61363 -58.4718
LeftForeArm  -131.242 -23.8526 -4.06641
LeftHand  7.9221 -25.6896 -34.1629
RightShoulder  0 2.42657e-020 1.07489e-018
RightArm  -27.3809 20.3066 78.0601
RightForeArm  66.2015 39.9378 8.42817
RightHand  -6.6458 17.0746 -41.9343
LeftUpLeg  -64.0799 -3.25317 -7.63352
LeftLeg  31.5178 -4.87854 -2.57517
LeftFoot  1.2612 -0.0028905 0.262608
LeftToes  -22.4725 1.18758e-006 1.19596e-007
396
root  -50.3996 28.6935 20.4028 127.562 77.8189 102.62
RightUpLeg  4.73007 16.346 4.3739
RightLeg  24.9883 2.73173 1.0605
RightFoot  -17.4034 -0.276174 -1.42682
RightToes  8.27889 0.0148801 0.079548
Spine  14.0615 5.46836 -0.197234
Spine1  25.384 17.1362 -9.2698
HEad  5.81468 -22.9167 21.6658
LeftShoulder1  0 -2.42657e-020 -4.95415e-022
LeftArm  -21.4367 -1.94277 -57.8175
LeftForeArm  -134.276 -17.8322 -2.86025
LeftHand  8.15473 -26.2655 -34.3571
RightShoulder  0 2.42657e-020 1.07489e-018
RightArm  -22.9035 24.6646 74.4479
RightForeArm  74.083 38.456 7.96184
RightHand  -7.51258 17.4231 -46.0325
LeftUpLeg  -69.8373 -7.13159 -5.09349
LeftLeg  44.6141 -11.1005 -9.48499
LeftFoot  6.35726 0.0472591 -0.85098
LeftToes  -25.7226 1.18758e-006 1.19596e-007
397
root  -48.1763 27.8113 19.4899 110.293 77.2554 84.1109
RightUpLeg  4.37012 14.254 -0.0956739
RightLeg  30.4845 6.40061 3.21497
RightFoot  -14.0281 -0.280686 -1.90363
RightToes  -12.1423 -0.042118 -0.110843
Spine  15.4084 7.19788 -1.43306
Spine1  26.7148 21.587 -11.6369
HEad  1.45034 -22.2201 22.3577
LeftShoulder1  0 -2.42657e-020 -4.95415e-022
LeftArm  -20.8438 -9.61755 -57.7531
LeftForeArm  -136.206 -16.0951 -2.52685
LeftHand  8.25383 -26.5734 -34.3584
RightShoulder  0 2.42657e-020 1.07489e-018
RightArm  -19.7835 28.2694 71.3612
RightForeArm  83.612 36.7439 7.44174
RightHand  -8.48026 18.5325 -48.5208
LeftUpLeg  -74.3608 -10.3048 -4.12152
LeftLeg  56.96 -7.10229 -9.42023
LeftFoot  0.645692 -0.00551715 0.979096
LeftToes  -25.6513 1.18758e-006 1.19596e-007
398
root  -45.9085 27.0088 18.8087 99.3789 76.8022 71.4848
RightUpLeg  1.48025 11.0469 -3.77962
RightLeg  38.3847 9.16126 6.27495
RightFoot  -6.72268 -0.0631416 -0.697537
RightToes  -41.8891 -0.233747 -0.325543
Spine  16.7385 8.65515 -2.1663
Spine1  28.4609 25.0426 -11.7987
HEad  -4.15656 -22.1631 23.3624
LeftShoulder1  0 -2.42657e-020 -4.95415e-022
LeftArm  -16.6165 -16.1003 -59.3861
LeftForeArm  -138.665 -16.9342 -2.68257
LeftHand  8.69365 -26.3211 -36.3956
RightShoulder  0 2.42657e-020 1.07489e-018
RightArm  -30.7895 31.5712 71.258
RightForeArm  88.8858 31.4992 6.06191
RightHand  -8.09548 17.6894 -48.5539
LeftUpLeg  -76.6863 -10.4266 -4.89841
LeftLeg  65.4508 -4.52747 -8.37687
LeftFoot  -5.55533 0.108356 2.23305
LeftToes  -25.1757 1.18758e-006 1.19596e-007
399
root  -43.6892 26.5528 18.2012 102.808 76.0947 73.1393
RightUpLeg  -3.87272 5.9556 -6.62597
RightLeg  49.5414 8.64908 8.7689
RightFoot  1.65631 -0.0220635 1.90301
RightToes  -46.9098 -0.275898 -0.350736
Spine  17.5018 8.37018 -1.99349
Spine1  29.4425 24.758 -11.0147
HEad  -6.63218 -21.111 22.2555
LeftShoulder1  0 -2.42657e-020 -4.95415e-022
LeftArm  -14.6612 -18.7773 -62.1311
LeftForeArm  -141.568 -19.7953 -3.23224
LeftHand  8.72686 -25.6324 -37.4631
RightShoulder  0 2.42657e-020 1.07489e-018
RightArm  -37.4294 34.6992 69.2044
RightForeArm  96.9499 25.1716 4.58728
RightHand  -9.31097 17.8686 -54.4139
LeftUpLeg  -77.3627 -12.4282 -6.98325
LeftLeg  71.0205 -3.16578 -7.55132
LeftFoot  -11.4407 0.297584 2.97005
LeftToes  -20.8753 1.18758e-006 1.19596e-007
400
root  -41.3786 26.3963 17.6203 103.069 75.2211 72.5269
RightUpLeg  -10.8106 3.94554 -8.97257
RightLeg  62.2748 6.93936 11.1006
RightFoot  7.10001 -0.214376 3.83165
RightToes  -46.4089 -0.271597 -0.34839
Spine  18.0616 8.04325 -1.93776
Spine1  30.0826 24.1295 -10.4661
HEad  -7.53495 -20.6872 21.1777
LeftShoulder1  0 -2.42657e-020 -4.95415e-022
LeftArm  -10.6147 -20.3159 -64.0273
LeftForeArm  -147.745 -22.476 -3.76297
LeftHand  9.18979 -25.7071 -39.1856
RightShoulder  0 2.42657e-020 1.07489e-018
RightArm  -46.9025 38.1949 67.7566
RightForeArm  83.9232 17.4075 3.05397
RightHand  -7.90433 19.8232 -42.7884
LeftUpLeg  -74.9779 -14.995 -8.70796
LeftLeg  73.6478 -2.11734 -5.80449
LeftFoot  -17.2848 0.463562 3.04919
LeftToes  -16.1924 1.18758e-006 1.19596e-007
401
root  -38.9969 26.463 17.2122 99.5165 74.6901 68.4995
RightUpLeg  -19.3735 3.11314 -10.9522
RightLeg  74.2518 5.26657 14.377
RightFoot  -2.13416 0.0207859 1.49395
RightToes  -42.9667 -0.242605 -0.33126
Spine  18.3363 7.86378 -1.77761
Spine1  30.3671 23.4021 -9.13659
HEad  -6.96415 -21.7127 19.3643
LeftShoulder1  0 -2.42657e-020 -4.95415e-022
LeftArm  -8.08074 -21.2412 -66.4208
LeftForeArm  -149.706 -24.1184 -4.10041
LeftHand  9.39514 -25.7533 -39.9218
RightShoulder  0 2.42657e-020 1.07489e-018
RightArm  -67.7189 39.5757 64.5242
RightForeArm  58.1265 9.44388 1.64095
RightHand  -2.89353 10.7446 -29.7132
LeftUpLeg  -70.6336 -16.0505 -10.4405
LeftLeg  74.2526 -1.6687 -4.73904
LeftFoot  -22.3443 0.580223 2.93721
LeftToes  -12.9544 1.18758e-006 1.19596e-007
402
root  -36.5631 26.8953 16.9499 98.3212 74.9801 66.8677
RightUpLeg  -29.0788 -0.18723 -11.9839
RightLeg  82.7036 2.57014 12.5448
RightFoot  -8.85803 -0.0518963 -0.292483
RightToes  -42.3944 -0.237888 -0.328245
Spine  17.7263 7.02296 -0.808984
Spine1  29.8904 20.2501 -6.00254
HEad  -7.98629 -21.9933 18.1964
LeftShoulder1  0 -2.42657e-020 -4.95415e-022
LeftArm  -6.44921 -19.9669 -68.9736
LeftForeArm  -149.061 -26.2159 -4.54629
LeftHand  9.31986 -25.5375 -39.9445
RightShoulder  0 2.42657e-020 1.07489e-018
RightArm  -95.1622 36.2295 61.8979
RightForeArm  35.62 7.53458 1.33258
RightHand  -2.9333 13.915 -23.3392
LeftUpLeg  -64.8679 -16.5349 -11.6032
LeftLeg  72.3136 -1.85823 -4.75543
LeftFoot  -25.3657 0.662551 2.94345
LeftToes  -10.423 1.18758e-006 1.19596e-007
403
root  -34.0252 27.5737 16.7939 99.6974 76.078 68.1074
RightUpLeg  -39.3503 -3.18528 -11.5828
RightLeg  87.4916 0.952315 7.74865
RightFoot  -12.165 -0.0811994 -0.384464
RightToes  -36.2558 -0.189285 -0.29301
Spine  16.7305 5.61714 0.713073
Spine1  28.7949 16.0246 -3.08704
HEad  -7.94162 -19.747 15.4937
LeftShoulder1  0 -2.42657e-020 -4.95415e-022
LeftArm  -4.76146 -16.7814 -70.1311
LeftForeArm  -151.131 -29.1882 -5.20495
LeftHand  9.49836 -25.3282 -40.9615
RightShoulder  0 2.42657e-020 1.07489e-018
RightArm  -99.2174 30.779 60.7224
RightForeArm  24.8276 8.87762 1.57956
RightHand  -0.999517 19.9015 -5.3243
LeftUpLeg  -58.1392 -17.7604 -11.6716
LeftLeg  68.653 -2.11692 -4.5382
LeftFoot  -26.241 0.632496 2.7131
LeftToes  -8.63165 1.18758e-006 1.19596e-007
404
root  -31.2483 28.4272 16.8161 96.1255 78.2114 65.2946
RightUpLeg  -48.3395 -3.61156 -10.0782
RightLeg  87.2535 0.564746 4.06269
RightFoot  -15.403 -0.0971725 -0.341021
RightToes  -31.2132 -0.152364 -0.260309
Spine  16.1822 4.59464 2.44494
Spine1  28.5958 12.63 -0.152353
HEad  -6.94366 -16.7447 11.0335
LeftShoulder1  0 -2.42657e-020 -4.95415e-022
LeftArm  -3.77286 -14.4301 -71.472
LeftForeArm  -155.728 -30.9592 -5.61496
LeftHand  9.91723 -25.4569 -42.4032
RightShoulder  0 2.42657e-020 1.07489e-018
RightArm  -99.2227 27.4586 61.26
RightForeArm  10.3571 13.9581 2.50704
RightHand  2.13343 23.653 10.5358
LeftUpLeg  -49.3018 -17.4042 -10.9487
LeftLeg  62.9165 -2.66383 -4.47582
LeftFoot  -26.0741 0.597986 2.58212
LeftToes  -7.29168 1.18758e-006 1.19596e-007
405
root  -28.2894 29.3546 16.8848 87.7047 80.5509 57.3951
RightUpLeg  -56.5163 -2.48806 -9.12623
RightLeg  82.9064 0.524108 2.24063
RightFoot  -16.1544 -0.095152 -0.292941
RightToes  -32.8196 -0.163811 -0.271077
Spine  15.1503 3.76755 4.209
Spine1  27.6071 9.72425 2.66848
HEad  -3.58395 -12.9174 4.15771
LeftShoulder1  0 -2.42657e-020 -4.95415e-022
LeftArm  -5.21746 -11.3582 -74.3006
LeftForeArm  -157.686 -30.9765 -5.61886
LeftHand  10.1224 -26.1876 -42.0703
RightShoulder  0 2.42657e-020 1.07489e-018
RightArm  -90.919 23.8393 61.3005
RightForeArm  6.19405 21.2667 3.92407
RightHand  3.51936 23.5026 17.1764
LeftUpLeg  -40.1633 -16.2658 -9.83271
LeftLeg  56.1234 -3.40811 -4.4299
LeftFoot  -23.321 0.490336 2.37565
LeftToes  -8.24134 1.18758e-006 1.19596e-007
406
root  -25.1598 30.2851 16.9607 76.994 82.2815 46.9742
RightUpLeg  -63.09 -1.1797 -9.45968
RightLeg  75.3266 0.0934236 0.0302912
RightFoot  -16.3545 -0.0421595 0.0841602
RightToes  -31.1059 -0.15161 -0.259578
Spine  13.9134 2.78736 5.3185
Spine1  26.074 6.90862 4.30397
HEad  0.41464 -7.82291 -2.28514
LeftShoulder1  0 -2.42657e-020 -4.95415e-022
LeftArm  -8.07752 -8.0967 -76.5765
LeftForeArm  -157.649 -30.6696 -5.54643
LeftHand  9.98184 -26.2609 -41.4284
RightShoulder  0 2.42657e-020 1.07489e-018
RightArm  -81.0731 20.7315 61.1143
RightForeArm  3.56123 27.5431 5.26178
RightHand  3.80602 22.2521 19.5543
LeftUpLeg  -31.5554 -14.828 -9.24308
LeftLeg  49.2245 -3.72031 -3.79052
LeftFoot  -17.0231 0.248392 1.65962
LeftToes  -11.3895 1.18758e-006 1.19596e-007
407
root  -21.8891 31.1 17.2109 57.0694 84.2371 27.0249
RightUpLeg  -66.8205 1.20492 -9.99084
RightLeg  63.3458 -2.41109 -4.21855
RightFoot  -16.6288 0.145584 1.37378
RightToes  -23.4129 -0.10129 -0.20368
Spine  12.7036 1.61541 6.19551
Spine1  24.6117 4.08039 5.42036
HEad  3.48298 -1.07557 -6.7788
LeftShoulder1  0 -2.42657e-020 -4.95415e-022
LeftArm  -10.9515 -4.68416 -77.749
LeftForeArm  -159.024 -30.89 -5.5984
LeftHand  10.1669 -26.47 -41.8153
RightShoulder  0 2.42657e-020 1.07489e-018
RightArm  -69.9318 17.5482 61.7473
RightForeArm  9.18653 32.3153 6.39652
RightHand  3.77399 23.9195 18.0562
LeftUpLeg  -24.1351 -10.9321 -7.30435
LeftLeg  43.4635 -6.06532 -5.03372
LeftFoot  -8.60999 0.0918767 1.22044
LeftToes  -10.6196 1.18758e-006 1.19596e-007
